{"extensionsUsed" : ["KHR_lights_punctual", "KHR_materials_transmission", "KHR_materials_specular", "KHR_materials_ior"], "extensionsRequired" : ["KHR_lights_punctual"], "accessors" : [{"bufferView" : 0, "byteOffset" : 0, "componentType" : 5123, "count" : 240828, "type" : "SCALAR", "max" : [46149], "min" : [0]}, {"bufferView" : 1, "byteOffset" : 0, "componentType" : 5126, "count" : 46150, "type" : "VEC3", "max" : [0.4689350426197052, 0.02099999599158764, -0.060849811881780624], "min" : [0.1941242218017578, -0.02099999599158764, -0.2911352217197418], "name" : "POSITION"}, {"bufferView" : 1, "byteOffset" : 12, "componentType" : 5126, "count" : 46150, "type" : "VEC3", "max" : [0.9978647828102112, 1.0000044107437134, 0.9990820288658142], "min" : [-0.9978637099266052, -1.0000044107437134, -0.9999833106994629], "name" : "NORMAL"}, {"bufferView" : 1, "byteOffset" : 24, "componentType" : 5126, "count" : 46150, "type" : "VEC2", "max" : [1, 2], "min" : [0, 1], "name" : "TEXCOORD_0"}], "asset" : {"generator" : "Aspose.3D 24.6.0", "version" : "2.0"}, "buffers" : [{"uri" : "data:application/octet-stream;base64,", "byteLength" : 1958464}], "bufferViews" : [{"buffer" : 0, "byteOffset" : 0, "byteLength" : 481656, "target" : 34963}, {"buffer" : 0, "byteOffset" : 481660, "byteLength" : 1476800, "byteStride" : 32, "target" : 34962}], "cameras" : [{"perspective" : {"aspectRatio" : 1.7777777777777777, "yfov" : 0.3995965204630489, "zfar" : 100, "znear" : 0.10000000149011612}, "type" : "perspective", "name" : ""}], "materials" : [{"name" : "Material.001", "extensions" : {"KHR_materials_transmission" : {"transmissionFactor" : 1}, "KHR_materials_specular" : {"specularFactor" : 0.8285714387893677}, "KHR_materials_ior" : {"ior" : 1.4500000476837158}}, "pbrMetallicRoughness" : {"baseColorFactor" : [0.800000011920929, 0.800000011920929, 0.800000011920929, 1], "metallicFactor" : 0, "roughnessFactor" : 0.5}, "emissiveFactor" : [0, 0, 0], "alphaMode" : "OPAQUE", "doubleSided" : true}], "meshes" : [{"primitives" : [{"attributes" : {"POSITION" : 1, "NORMAL" : 2, "TEXCOORD_0" : 3}, "indices" : 0, "material" : 0, "mode" : 4}]}], "nodes" : [{"camera" : 0, "matrix" : [0.6859206347797677, -1.9112529336950956E-08, -0.7276763573390443, 0, -0.32401346065627035, 0.8953956546680355, -0.305420854447231, 0, 0.6515582539909754, 0.4452714015268988, 0.6141703497279187, 0, 7.358891487121582, 4.958309173583984, 6.925790786743164, 1], "name" : "Camera"}, {"matrix" : [-1.6445460222357287, 2.637957980617169E-07, 2.6789864967088004E-07, 0, -2.6379581718365637E-07, 0.025378968598593142, -1.6443503080304556, 0, -2.678986690902256E-07, -1.6443503080304556, -0.025378958882416782, 0, 0, 0.8369446396827698, 0, 1], "mesh" : 0, "name" : "Curve.001"}], "scene" : 0, "scenes" : [{"nodes" : [0, 1]}], "extensions" : {"KHR_lights_punctual" : {"lights" : [{"color" : [1, 1, 1], "intensity" : 54351.41306588226, "type" : "point", "name" : "Light"}]}}}